# File created by Blade
# Date/Time:  Mon Sep 22 16:09:39 2014
# Frame Rate: 120.000 fps
#------------------------------------------------------
:FULLY-SPECIFIED
:DEGREES
996
root 2.760312 37.058151 2.054522 2.017514 3.668113 1.818236
RightUpLeg 6.159531 -8.796496 -2.567300
RightLeg -4.304100 -0.000000 0.000000
RightFoot -14.528075 -18.953631 17.322153
RightToeBase 14.064707 -0.000000 -0.000000
LeftUpLeg 1.968184 -4.033186 1.706976
LeftLeg -1.364353 -0.000000 0.000000
LeftFoot -8.782219 11.760457 -16.499695
LeftToeBase 9.602124 -0.000000 -0.000000
Spine -0.869764 -1.807456 -0.118590
RightShoulder 0.691478 -24.895732 -2.593603
RightArm 10.172533 31.990448 90.373275
RightForeArm 91.594872 0.000000 117.037100
RightHand 19.087353 -0.000000 -12.358656
RightHandThumb1 -24.326973 -0.000000 -32.862282
LeftShoulder -21.647366 39.031866 -0.795490
LeftArm 42.474103 23.383655 -59.041306
LeftForeArm 19.083449 -0.000000 33.136051
LeftHand -12.764786 -0.000000 -11.341309
LeftHandThumb1 -26.253704 0.000000 33.147579
Head 1.311130 -0.949488 11.360437
997
root 2.756431 37.056317 2.062462 1.944684 3.359178 1.726544
RightUpLeg 6.155723 -8.886511 -2.512217
RightLeg -4.227933 -0.000000 0.000000
RightFoot -14.440217 -18.594976 17.254931
RightToeBase 14.103460 -0.000000 -0.000000
LeftUpLeg 2.083344 -3.955282 1.779127
LeftLeg -1.342587 -0.000000 0.000000
LeftFoot -8.937939 11.959044 -16.512108
LeftToeBase 9.604004 -0.000000 -0.000000
Spine -0.798537 -1.765239 -0.045031
RightShoulder 0.728519 -24.893585 -2.401686
RightArm 10.233474 32.089419 90.355790
RightForeArm 91.719608 0.000000 116.588919
RightHand 18.921536 -0.000000 -12.239423
RightHandThumb1 -24.326973 -0.000000 -32.862282
LeftShoulder -21.559738 38.982307 -0.654960
LeftArm 42.382597 23.356026 -59.158818
LeftForeArm 19.182731 -0.000000 32.654255
LeftHand -12.823623 -0.000000 -11.339982
LeftHandThumb1 -26.253704 0.000000 33.147579
Head 1.512334 -0.694348 11.476028
998
root 2.747568 37.054490 2.071223 1.894912 3.030982 1.612527
RightUpLeg 6.132078 -8.879151 -2.426809
RightLeg -4.158967 -0.000000 0.000000
RightFoot -14.376207 -18.261615 17.275492
RightToeBase 14.102071 -0.000000 -0.000000
LeftUpLeg 2.180381 -3.857400 1.881711
LeftLeg -1.321232 -0.000000 0.000000
LeftFoot -9.106719 12.146641 -16.535057
LeftToeBase 9.630653 -0.000000 -0.000000
Spine -0.775072 -1.663330 0.047294
RightShoulder 0.748376 -24.956375 -2.236376
RightArm 10.395014 32.216484 90.420041
RightForeArm 91.761051 -0.000000 116.073292
RightHand 19.165751 -0.000000 -12.440358
RightHandThumb1 -24.326973 -0.000000 -32.862282
LeftShoulder -21.497266 38.902330 -0.539039
LeftArm 42.356025 23.372614 -59.173012
LeftForeArm 19.345609 -0.000000 32.114499
LeftHand -12.800550 0.000000 -11.601695
LeftHandThumb1 -26.253704 0.000000 33.147579
Head 1.756365 -0.482395 11.598775
999
root 2.744433 37.051918 2.080254 1.848303 2.704769 1.538623
RightUpLeg 6.118173 -8.943266 -2.386036
RightLeg -4.114893 -0.000000 0.000000
RightFoot -14.291563 -17.948144 17.171208
RightToeBase 14.213893 -0.000000 -0.000000
LeftUpLeg 2.287389 -3.790302 1.935247
LeftLeg -1.321802 -0.000000 0.000000
LeftFoot -9.260286 12.363824 -16.578264
LeftToeBase 9.619205 -0.000000 -0.000000
Spine -0.749465 -1.530822 0.096705
RightShoulder 0.778252 -24.928005 -2.084440
RightArm 10.420863 32.433551 90.450816
RightForeArm 91.773903 -0.000000 115.579477
RightHand 19.163058 -0.000000 -12.886933
RightHandThumb1 -24.326973 -0.000000 -32.862282
LeftShoulder -21.417412 38.847866 -0.436478
LeftArm 42.369705 23.379752 -59.130825
LeftForeArm 19.331133 -0.000000 31.600646
LeftHand -12.791667 -0.000000 -11.955066
LeftHandThumb1 -26.253704 0.000000 33.147579
Head 1.980812 -0.334628 11.701826
1000
root 2.738196 37.049237 2.087507 1.814971 2.425316 1.458101
RightUpLeg 6.120266 -9.019726 -2.328326
RightLeg -4.122198 -0.000000 0.000000
RightFoot -14.170636 -17.641377 17.105930
RightToeBase 14.242491 -0.000000 -0.000000
LeftUpLeg 2.376692 -3.720397 1.999555
LeftLeg -1.328999 -0.000000 0.000000
LeftFoot -9.393247 12.567495 -16.553770
LeftToeBase 9.592024 -0.000000 -0.000000
Spine -0.730790 -1.423540 0.150637
RightShoulder 0.800932 -24.890954 -1.959067
RightArm 10.408160 32.578005 90.450271
RightForeArm 92.030157 -0.000000 115.087730
RightHand 19.337015 -0.000000 -13.239448
RightHandThumb1 -24.326973 -0.000000 -32.862282
LeftShoulder -21.311631 38.800273 -0.344233
LeftArm 42.383749 23.366570 -59.062034
LeftForeArm 19.407922 -0.000000 31.115869
LeftHand -12.723609 -0.000000 -11.916867
LeftHandThumb1 -26.253704 0.000000 33.147579
Head 2.172397 -0.201493 11.783105
